<mxfile host="app.diagrams.net" modified="2022-12-26T12:22:28.504Z" agent="5.0 (Windows NT 10.0; Win64; x64) AppleWebKit/537.36 (KHTML, like Gecko) Chrome/102.0.0.0 Safari/537.36" version="20.7.4" etag="UtcmLOKb2IiJt2iaKEpc" type="github">
  <diagram id="nAjSPojjUmBOrtGd3mPq" name="第 1 页">
    <mxGraphModel dx="1434" dy="764" grid="1" gridSize="10" guides="1" tooltips="1" connect="1" arrows="1" fold="1" page="1" pageScale="1" pageWidth="827" pageHeight="1169" math="0" shadow="0">
      <root>
        <mxCell id="0" />
        <mxCell id="1" parent="0" />
        <mxCell id="vFWMxhtx-6IHOo9wJs7J-1" value="广告主2" style="shape=umlActor;verticalLabelPosition=bottom;verticalAlign=top;html=1;outlineConnect=0;" vertex="1" parent="1">
          <mxGeometry x="210" y="340" width="30" height="60" as="geometry" />
        </mxCell>
        <mxCell id="vFWMxhtx-6IHOo9wJs7J-4" value="广告主1" style="shape=umlActor;verticalLabelPosition=bottom;verticalAlign=top;html=1;outlineConnect=0;" vertex="1" parent="1">
          <mxGeometry x="210" y="200" width="30" height="60" as="geometry" />
        </mxCell>
        <mxCell id="vFWMxhtx-6IHOo9wJs7J-5" value="广告主n" style="shape=umlActor;verticalLabelPosition=bottom;verticalAlign=top;html=1;outlineConnect=0;" vertex="1" parent="1">
          <mxGeometry x="210" y="460" width="30" height="60" as="geometry" />
        </mxCell>
        <mxCell id="vFWMxhtx-6IHOo9wJs7J-16" style="edgeStyle=orthogonalEdgeStyle;rounded=0;orthogonalLoop=1;jettySize=auto;html=1;entryX=0;entryY=0.5;entryDx=0;entryDy=0;" edge="1" parent="1" source="vFWMxhtx-6IHOo9wJs7J-27" target="vFWMxhtx-6IHOo9wJs7J-10">
          <mxGeometry x="-0.037" y="20" relative="1" as="geometry">
            <mxPoint x="550" y="360" as="sourcePoint" />
            <Array as="points">
              <mxPoint x="540" y="360" />
              <mxPoint x="540" y="230" />
            </Array>
            <mxPoint as="offset" />
          </mxGeometry>
        </mxCell>
        <mxCell id="vFWMxhtx-6IHOo9wJs7J-17" style="edgeStyle=orthogonalEdgeStyle;rounded=0;orthogonalLoop=1;jettySize=auto;html=1;entryX=0;entryY=0.5;entryDx=0;entryDy=0;exitX=1;exitY=0.5;exitDx=0;exitDy=0;" edge="1" parent="1" source="vFWMxhtx-6IHOo9wJs7J-27" target="vFWMxhtx-6IHOo9wJs7J-11">
          <mxGeometry relative="1" as="geometry">
            <mxPoint x="530" y="410" as="sourcePoint" />
          </mxGeometry>
        </mxCell>
        <mxCell id="vFWMxhtx-6IHOo9wJs7J-18" style="edgeStyle=orthogonalEdgeStyle;rounded=0;orthogonalLoop=1;jettySize=auto;html=1;entryX=0;entryY=0.5;entryDx=0;entryDy=0;exitX=1;exitY=0.5;exitDx=0;exitDy=0;" edge="1" parent="1" source="vFWMxhtx-6IHOo9wJs7J-27" target="vFWMxhtx-6IHOo9wJs7J-12">
          <mxGeometry x="-0.1304" y="-40" relative="1" as="geometry">
            <mxPoint x="480" y="510" as="sourcePoint" />
            <Array as="points">
              <mxPoint x="540" y="360" />
              <mxPoint x="540" y="490" />
            </Array>
            <mxPoint as="offset" />
          </mxGeometry>
        </mxCell>
        <mxCell id="vFWMxhtx-6IHOo9wJs7J-22" style="edgeStyle=orthogonalEdgeStyle;rounded=0;orthogonalLoop=1;jettySize=auto;html=1;exitX=0;exitY=0.5;exitDx=0;exitDy=0;entryX=1;entryY=0.3333333333333333;entryDx=0;entryDy=0;entryPerimeter=0;" edge="1" parent="1" source="vFWMxhtx-6IHOo9wJs7J-27" target="vFWMxhtx-6IHOo9wJs7J-1">
          <mxGeometry relative="1" as="geometry">
            <mxPoint x="384" y="360" as="sourcePoint" />
          </mxGeometry>
        </mxCell>
        <mxCell id="vFWMxhtx-6IHOo9wJs7J-23" style="edgeStyle=orthogonalEdgeStyle;rounded=0;orthogonalLoop=1;jettySize=auto;html=1;exitX=0;exitY=0.5;exitDx=0;exitDy=0;entryX=1;entryY=0.3333333333333333;entryDx=0;entryDy=0;entryPerimeter=0;" edge="1" parent="1" source="vFWMxhtx-6IHOo9wJs7J-27" target="vFWMxhtx-6IHOo9wJs7J-4">
          <mxGeometry relative="1" as="geometry">
            <mxPoint x="384" y="360" as="sourcePoint" />
          </mxGeometry>
        </mxCell>
        <mxCell id="vFWMxhtx-6IHOo9wJs7J-24" style="edgeStyle=orthogonalEdgeStyle;rounded=0;orthogonalLoop=1;jettySize=auto;html=1;exitX=0;exitY=0.5;exitDx=0;exitDy=0;entryX=1;entryY=0.3333333333333333;entryDx=0;entryDy=0;entryPerimeter=0;" edge="1" parent="1" source="vFWMxhtx-6IHOo9wJs7J-27" target="vFWMxhtx-6IHOo9wJs7J-5">
          <mxGeometry relative="1" as="geometry">
            <mxPoint x="384" y="360" as="sourcePoint" />
          </mxGeometry>
        </mxCell>
        <mxCell id="vFWMxhtx-6IHOo9wJs7J-10" value="数据权限" style="rounded=0;whiteSpace=wrap;html=1;" vertex="1" parent="1">
          <mxGeometry x="620" y="200" width="120" height="60" as="geometry" />
        </mxCell>
        <mxCell id="vFWMxhtx-6IHOo9wJs7J-11" value="菜单权限" style="rounded=0;whiteSpace=wrap;html=1;" vertex="1" parent="1">
          <mxGeometry x="620" y="330" width="120" height="60" as="geometry" />
        </mxCell>
        <mxCell id="vFWMxhtx-6IHOo9wJs7J-12" value="操作权限" style="rounded=0;whiteSpace=wrap;html=1;" vertex="1" parent="1">
          <mxGeometry x="620" y="460" width="120" height="60" as="geometry" />
        </mxCell>
        <mxCell id="vFWMxhtx-6IHOo9wJs7J-27" value="角色" style="ellipse;whiteSpace=wrap;html=1;aspect=fixed;" vertex="1" parent="1">
          <mxGeometry x="400" y="320" width="80" height="80" as="geometry" />
        </mxCell>
      </root>
    </mxGraphModel>
  </diagram>
</mxfile>
